<svg xmlns="http://www.w3.org/2000/svg" width="139" height="50" fill="none"><path fill="#fff" d="m.1 48.92.47-1.89c.32-1.25.59-2.58.81-3.97.22-1.44.34-2.79.34-4.04V10.85a25 25 0 0 0-.34-3.98C1.16 5.44.88 4.11.58 2.9.25 1.64.1.99.1.94V.67h20.82c4.76 0 8.58 1.15 11.46 3.44 2.87 2.3 4.31 5.37 4.31 9.23 0 3.69-1.21 6.6-3.64 8.76-2.38 2.11-5.61 3.4-9.7 3.84a13.7 13.7 0 0 1 9.1 7.08 646.78 646.78 0 0 1 4.65 9.43 44.2 44.2 0 0 0 2.02 3.3c.8 1.17 1.68 2.23 2.62 3.17v.27H31.03c-1.35-1.26-3.55-5.46-6.6-12.6-2.43-5.66-5.53-8.92-9.3-9.77H10.6v12.2c0 2.02.54 5.32 1.62 9.9v.27H.1v-.27ZM10.61 24.2h7.08c3 0 5.32-.87 6.94-2.63 1.66-1.75 2.5-4.35 2.5-7.81 0-3.37-.8-5.98-2.37-7.82-1.57-1.89-3.82-2.83-6.74-2.83h-7.4v21.1Zm1.62 2.5h.34c-.27 0-.48.02-.61.06.04 0 .13-.02.27-.07ZM44.65 46.83c.4-1.21.76-2.33 1.07-3.37.32-1.03.61-2.38.88-4.04.31-1.66.47-3.19.47-4.58V10.92c0-1-.11-2.07-.34-3.24a20.59 20.59 0 0 0-.74-2.9 52.4 52.4 0 0 0-.87-2.42L44.65.94V.67H55.9l14.76 37.4L84.8.67h10.44v.27c0 .05-.15.7-.47 1.96a41.26 41.26 0 0 0-.8 3.97c-.23 1.4-.34 2.72-.34 3.98v28.17c0 1.25.1 2.6.33 4.04.23 1.4.5 2.72.81 3.97.32 1.22.47 1.85.47 1.9v.26H83.2v-.27c1.08-4.58 1.62-7.88 1.62-9.9V8.76L69.58 49.19h-3.1v-.07l-.6.07L50.03 8.96c-.05.4-.07 1.06-.07 1.96v23.92c0 1.4.13 2.92.4 4.58.32 1.66.63 3.01.95 4.04.31 1.04.67 2.18 1.08 3.44.4 1.21.62 1.86.67 1.95v.34h-9.1v-.34c.05-.09.27-.76.68-2.02ZM106.38 6.94C110.74 2.31 116.26 0 122.96 0c4.49 0 9.77 1.03 15.83 3.1v10.85h-.4c-4.9-7.41-9.77-11.12-14.63-11.12-3.95 0-7.27 2.13-9.97 6.4-2.65 4.22-3.98 9.46-3.98 15.7 0 6.25 1.38 11.53 4.11 15.84 2.79 4.27 6.1 6.4 9.91 6.4 2.47 0 4.96-1.06 7.48-3.17a38.08 38.08 0 0 0 7.08-8.08h.4V46.9c-6.29 2.07-11.68 3.1-16.17 3.1a21.44 21.44 0 0 1-16.24-7c-4.4-4.68-6.6-10.68-6.6-18 0-7.41 2.2-13.43 6.6-18.06Z"/></svg>