<svg xmlns="http://www.w3.org/2000/svg" width="104" height="38" fill="none"><path fill="#fff" d="m.1 36.8.35-1.4c.23-.93.43-1.92.6-2.95.17-1.07.25-2.07.25-3V8.55c0-.93-.08-1.92-.25-2.95a30.63 30.63 0 0 0-.6-2.95L.1 1.2V1h15.45c3.53 0 6.37.85 8.5 2.55a8.3 8.3 0 0 1 3.2 6.85c0 2.73-.9 4.9-2.7 6.5-1.77 1.57-4.17 2.52-7.2 2.85 3.03.77 5.28 2.52 6.75 5.25a481.86 481.86 0 0 1 3.45 7c.4.73.9 1.55 1.5 2.45.6.87 1.25 1.65 1.95 2.35v.2h-7.95c-1-.93-2.63-4.05-4.9-9.35-1.8-4.2-4.1-6.62-6.9-7.25H7.9v9.05c0 1.5.4 3.95 1.2 7.35v.2h-9v-.2Zm7.8-18.35h5.25c2.23 0 3.95-.65 5.15-1.95 1.23-1.3 1.85-3.23 1.85-5.8 0-2.5-.58-4.43-1.75-5.8-1.17-1.4-2.83-2.1-5-2.1H7.9v15.65Zm1.2 1.85h.25c-.2 0-.35.02-.45.05l.2-.05Zm24.05 14.95c.3-.9.57-1.73.8-2.5.24-.77.45-1.77.65-3 .24-1.23.35-2.37.35-3.4V8.6a15.26 15.26 0 0 0-.8-4.55c-.2-.6-.41-1.2-.65-1.8l-.35-1.05V1h8.35l10.95 27.75L62.95 1h7.75v.2c0 .03-.11.52-.35 1.45-.23.9-.43 1.88-.6 2.95a18.56 18.56 0 0 0-.25 2.95v20.9c0 .93.09 1.93.25 3 .17 1.03.37 2.02.6 2.95.24.9.35 1.37.35 1.4v.2h-8.95v-.2c.8-3.4 1.2-5.85 1.2-7.35V7l-11.3 30h-2.3v-.05l-.45.05L37.15 7.15c-.03.3-.05.78-.05 1.45v17.75c0 1.03.1 2.17.3 3.4.24 1.23.47 2.23.7 3a173.65 173.65 0 0 0 1.3 4V37h-6.75v-.25c.04-.07.2-.57.5-1.5Zm45.8-29.6C82.2 2.22 86.3.5 91.26.5c3.34 0 7.26.77 11.76 2.3v8.05h-.3c-3.64-5.5-7.25-8.25-10.85-8.25-2.94 0-5.4 1.58-7.4 4.75-1.97 3.13-2.95 7.02-2.95 11.65 0 4.63 1.01 8.55 3.05 11.75 2.06 3.17 4.51 4.75 7.35 4.75 1.83 0 3.68-.78 5.55-2.35 1.9-1.6 3.65-3.6 5.25-6h.3v8.15c-4.67 1.53-8.67 2.3-12 2.3a15.9 15.9 0 0 1-12.05-5.2c-3.27-3.47-4.9-7.92-4.9-13.35 0-5.5 1.63-9.97 4.9-13.4Z"/></svg>